<svg width="715" height="697" viewBox="0 0 715 697" fill="none" xmlns="http://www.w3.org/2000/svg">
    <path
        d="M357.5 549.6C242.017 549.6 148.4 455.982 148.4 340.5C148.4 225.017 242.017 131.4 357.5 131.4C472.982 131.4 566.6 225.017 566.6 340.5C566.6 365.644 562.16 389.754 554.026 412.082C551.095 420.132 545.951 427.141 539.654 432.947L536.849 435.536C517.496 453.386 488.442 455.676 466.539 441.07C450.672 430.493 441.14 412.685 441.14 393.615V340.5M441.14 340.5C441.14 386.694 403.694 424.14 357.5 424.14C311.306 424.14 273.86 386.694 273.86 340.5C273.86 294.306 311.306 256.86 357.5 256.86C403.694 256.86 441.14 294.306 441.14 340.5Z"
        stroke="#35363E" stroke-width="18" stroke-linecap="round" />
    <path
        d="M183.25 38.623C234.51 8.97091 294.024 -8 357.5 -8C549.97 -8 706 148.029 706 340.5C706 532.97 549.97 689 357.5 689C165.029 689 9 532.97 9 340.5C9 277.024 25.9709 217.51 55.623 166.25"
        stroke="#35363E" stroke-width="18" stroke-linecap="round" />
</svg>    