<svg width="40" height="49" viewBox="0 0 40 49" fill="none" xmlns="http://www.w3.org/2000/svg">
<path d="M19.9992 27.5034C27.5928 27.5034 33.7493 21.3442 33.7493 13.7581C33.7493 6.15914 27.5928 0 19.9992 0C12.4002 0 6.25122 6.16181 6.25122 13.7581C6.25122 21.3418 12.4029 27.5034 19.9992 27.5034Z" fill="#EEEEEE"/>
<path d="M18.9782 48.9701C29.5046 48.9701 35.1507 47.0456 37.8723 45.6367C39.161 44.9705 40.0902 43.0331 39.993 41.6138C39.7557 38.1961 38.7246 31.9705 34.569 26.6663C33.9412 25.865 32.795 24.9868 31.6848 24.3867C28.8105 27.6056 24.6446 29.645 19.9992 29.645C15.3586 29.645 11.1929 27.608 8.32127 24.3921C7.23647 25.0097 6.12097 25.8853 5.51344 26.6815C3.54029 29.2571 0.497559 34.2474 0.0101453 40.9679C-0.0920888 42.3847 0.584315 44.5517 1.76868 45.381C4.01783 46.9562 8.87275 48.9701 18.9782 48.9701Z" fill="#EEEEEE"/>
</svg>