<svg width="40" height="40" viewBox="0 0 40 40" fill="none" xmlns="http://www.w3.org/2000/svg">
<path d="M20 0C16.0444 0 12.1776 1.17298 8.8886 3.37061C5.59962 5.56823 3.03617 8.69181 1.52242 12.3463C0.00866572 16.0009 -0.387401 20.0222 0.384303 23.9018C1.15601 27.7814 3.06082 31.3451 5.85787 34.1421C8.65492 36.9392 12.2186 38.844 16.0982 39.6157C19.9778 40.3874 23.9991 39.9913 27.6537 38.4776C31.3082 36.9638 34.4318 34.4004 36.6294 31.1114C38.827 27.8224 40 23.9556 40 20C39.994 14.6975 37.8849 9.61392 34.1355 5.86449C30.3861 2.11507 25.3025 0.00600369 20 0ZM20 36.2963C16.7769 36.2963 13.6262 35.3405 10.9463 33.5499C8.26636 31.7592 6.17762 29.2141 4.94419 26.2363C3.71077 23.2586 3.38804 19.9819 4.01684 16.8207C4.64564 13.6596 6.19771 10.7559 8.47679 8.47678C10.7559 6.1977 13.6596 4.64563 16.8208 4.01683C19.9819 3.38804 23.2586 3.71076 26.2363 4.94418C29.2141 6.17761 31.7592 8.26635 33.5499 10.9463C35.3405 13.6262 36.2963 16.7769 36.2963 20C36.2914 24.3205 34.5729 28.4627 31.5178 31.5178C28.4627 34.5729 24.3206 36.2914 20 36.2963ZM20 6.66667C17.3629 6.66667 14.7851 7.44865 12.5924 8.91374C10.3997 10.3788 8.69078 12.4612 7.68161 14.8976C6.67245 17.3339 6.4084 20.0148 6.92287 22.6012C7.43734 25.1876 8.70722 27.5634 10.5719 29.4281C12.4366 31.2928 14.8124 32.5627 17.3988 33.0771C19.9852 33.5916 22.6661 33.3276 25.1024 32.3184C27.5388 31.3092 29.6212 29.6003 31.0863 27.4076C32.5513 25.2149 33.3333 22.6371 33.3333 20C33.3294 16.465 31.9233 13.0759 29.4237 10.5763C26.9241 8.07668 23.535 6.67065 20 6.66667ZM20.0005 25.925C20.9212 25.9285 21.8298 25.7159 22.6533 25.3042C23.4768 24.8925 24.1921 24.2933 24.7418 23.5547C24.9784 23.2421 25.3292 23.0361 25.7174 22.9817C26.1056 22.9273 26.4996 23.029 26.8129 23.2645C27.1263 23.5 27.3336 23.8501 27.3894 24.2381C27.4451 24.6261 27.3448 25.0204 27.1105 25.3346C25.9908 26.8266 24.4301 27.9284 22.6494 28.4842C20.8688 29.04 18.9584 29.0215 17.1888 28.4313C15.4193 27.8411 13.8803 26.7092 12.7897 25.1959C11.6991 23.6825 11.1123 21.8644 11.1123 19.999C11.1123 18.1337 11.6991 16.3156 12.7897 14.8022C13.8803 13.2889 15.4193 12.157 17.1888 11.5668C18.9584 10.9766 20.8688 10.9581 22.6494 11.5139C24.4301 12.0696 25.9908 13.1715 27.1105 14.6634C27.3448 14.9777 27.445 15.3719 27.3893 15.7599C27.3335 16.1479 27.1262 16.498 26.8128 16.7335C26.4995 16.9689 26.1056 17.0706 25.7174 17.0163C25.3292 16.9619 24.9784 16.7559 24.7418 16.4434C24.1357 15.6353 23.3331 14.9955 22.4102 14.5848C21.4874 14.174 20.4748 14.006 19.4688 14.0967C18.4627 14.1874 17.4965 14.5338 16.6619 15.1029C15.8274 15.672 15.1521 16.445 14.7004 17.3485C14.2486 18.252 14.0352 19.2559 14.0806 20.2651C14.126 21.2742 14.4286 22.255 14.9596 23.1143C15.4906 23.9736 16.2325 24.6829 17.1148 25.1748C17.997 25.6667 18.9904 25.925 20.0005 25.925Z" fill="#EEEEEE"/>
</svg>