<svg width="100" height="76" viewBox="0 0 100 76" fill="none" xmlns="http://www.w3.org/2000/svg">
<path d="M97.9591 63.5973C97.9591 69.1633 93.406 73.716 87.8402 73.716H12.1597C6.59409 73.716 2.04077 69.1631 2.04077 63.5973V12.4027C2.04077 6.83693 6.59409 2.284 12.1597 2.284H87.8402C93.406 2.284 97.9591 6.83693 97.9591 12.4027V63.5973Z" fill="white"/>
<path d="M12.1597 73.7162H14.2857V19.7475L49.9724 48.495L85.6591 19.7475V73.716H87.84C93.0515 73.716 97.3744 69.7248 97.9041 64.6477V12.4028C97.9041 6.83674 93.3507 2.28401 87.7851 2.28401L49.9724 32.849L12.1597 2.28381C6.59409 2.28381 2.04077 6.83674 2.04077 12.4026V63.5973C2.04077 69.1633 6.59409 73.7162 12.1597 73.7162Z" fill="#D50707"/>
<path d="M87.8402 0.242981H12.1598C5.45488 0.242981 0 5.69806 0 12.4027V63.5975C0 70.3024 5.45488 75.757 12.1598 75.757H87.8402C94.5453 75.757 100 70.3024 100 63.5975V12.4027C100 5.69806 94.5453 0.242981 87.8402 0.242981ZM82.0141 4.32462L49.9725 30.2246L17.9309 4.32462H82.0141ZM83.6184 71.6754H16.3266V24.0121L48.6922 50.0844C49.4395 50.6863 50.5055 50.6863 51.2527 50.0844L83.6182 24.0121V71.6754H83.6184ZM95.9184 63.5973C95.9184 68.0516 92.2945 71.6752 87.8402 71.6752H87.7002V19.7475C87.7002 18.9617 87.2492 18.2459 86.5402 17.9067C85.8309 17.5672 84.9906 17.6654 84.3791 18.1582L49.9725 45.8746L15.566 18.1582C14.9539 17.6654 14.1133 17.5672 13.4049 17.9067C12.6959 18.2459 12.2449 18.9617 12.2449 19.7475V71.6752H12.1598C7.70566 71.6754 4.08184 68.0516 4.08184 63.5975V12.4027C4.08184 8.17892 7.34121 4.70392 11.4766 4.35587L48.6898 34.4363C49.0639 34.7389 49.5184 34.8901 49.9727 34.8901C50.4271 34.8901 50.8814 34.7389 51.2555 34.4363L88.4732 4.35177C92.6324 4.67599 95.9184 8.16173 95.9184 12.4026V63.5973Z" fill="black"/>
<path d="M77.8363 39.3889C78.2873 39.3889 78.7414 39.24 79.1191 38.9342L79.8291 38.3596C80.705 37.6504 80.8402 36.3654 80.131 35.4895C79.422 34.6133 78.1367 34.4781 77.2609 35.1873L76.5507 35.7619C75.6748 36.4711 75.5396 37.7563 76.2488 38.6322C76.6521 39.1303 77.2416 39.3889 77.8363 39.3889Z" fill="black"/>
<path d="M58.1133 55.1981C58.5643 55.1981 59.0184 55.0492 59.3961 54.7436L73.9875 43.0885C74.8635 42.3793 74.9987 41.0944 74.2895 40.2184C73.5805 39.3422 72.2952 39.2069 71.4194 39.9158L56.828 51.5709C55.952 52.2801 55.8168 53.5651 56.526 54.441C56.9289 54.9393 57.5186 55.1981 58.1133 55.1981Z" fill="black"/>
</svg>
