<svg width="42" height="42" viewBox="0 0 42 42" fill="none" xmlns="http://www.w3.org/2000/svg">
<path d="M1 3.5C1 2.83696 1.26339 2.20107 1.73223 1.73223C2.20107 1.26339 2.83696 1 3.5 1H13.5C14.163 1 14.7989 1.26339 15.2678 1.73223C15.7366 2.20107 16 2.83696 16 3.5V16C16 16.663 15.7366 17.2989 15.2678 17.7678C14.7989 18.2366 14.163 18.5 13.5 18.5H3.5C2.83696 18.5 2.20107 18.2366 1.73223 17.7678C1.26339 17.2989 1 16.663 1 16V3.5ZM26 3.5C26 2.83696 26.2634 2.20107 26.7322 1.73223C27.2011 1.26339 27.837 1 28.5 1H38.5C39.163 1 39.7989 1.26339 40.2678 1.73223C40.7366 2.20107 41 2.83696 41 3.5V8.5C41 9.16304 40.7366 9.79893 40.2678 10.2678C39.7989 10.7366 39.163 11 38.5 11H28.5C27.837 11 27.2011 10.7366 26.7322 10.2678C26.2634 9.79893 26 9.16304 26 8.5V3.5ZM1 31C1 30.337 1.26339 29.7011 1.73223 29.2322C2.20107 28.7634 2.83696 28.5 3.5 28.5H13.5C14.163 28.5 14.7989 28.7634 15.2678 29.2322C15.7366 29.7011 16 30.337 16 31V38.5C16 39.163 15.7366 39.7989 15.2678 40.2678C14.7989 40.7366 14.163 41 13.5 41H3.5C2.83696 41 2.20107 40.7366 1.73223 40.2678C1.26339 39.7989 1 39.163 1 38.5V31ZM26 23.5C26 22.837 26.2634 22.2011 26.7322 21.7322C27.2011 21.2634 27.837 21 28.5 21H38.5C39.163 21 39.7989 21.2634 40.2678 21.7322C40.7366 22.2011 41 22.837 41 23.5V38.5C41 39.163 40.7366 39.7989 40.2678 40.2678C39.7989 40.7366 39.163 41 38.5 41H28.5C27.837 41 27.2011 40.7366 26.7322 40.2678C26.2634 39.7989 26 39.163 26 38.5V23.5Z" stroke="#EEEEEE" stroke-width="2" />
</svg>