<?xml version="1.0" encoding="utf-8"?>
<svg viewBox="286.151 127.486 102 102" width="97" height="97" xmlns="http://www.w3.org/2000/svg">
  <defs>
    <radialGradient id="paint0_radial_2001_294" cx="0" cy="0" r="1" gradientUnits="userSpaceOnUse" gradientTransform="matrix(51.785755, -74.999939, 74.999939, 51.785755, 322.365345, 202.985948)">
      <stop stop-color="#B13589"/>
      <stop offset="0.7931" stop-color="#C62F94"/>
      <stop offset="1" stop-color="#8A3AC8"/>
    </radialGradient>
    <radialGradient id="paint1_radial_2001_294" cx="0" cy="0" r="1" gradientUnits="userSpaceOnUse" gradientTransform="matrix(33.92852, -73.214157, 73.214157, 33.92852, 318.793934, 231.556947)">
      <stop stop-color="#E0E8B7"/>
      <stop offset="0.4447" stop-color="#FB8A2E"/>
      <stop offset="0.7147" stop-color="#E2425C"/>
      <stop offset="1" stop-color="#E2425C" stop-opacity="0"/>
    </radialGradient>
    <radialGradient id="paint2_radial_2001_294" cx="0" cy="0" r="1" gradientUnits="userSpaceOnUse" gradientTransform="matrix(137.500015, -19.642855, 4.201401, 29.409817, 281.293903, 131.557389)">
      <stop offset="0.1567" stop-color="#406ADC"/>
      <stop offset="0.4678" stop-color="#6A45BE"/>
      <stop offset="1" stop-color="#6A45BE" stop-opacity="0"/>
    </radialGradient>
  </defs>
  <path d="M 308.08 129.486 L 365.222 129.486 C 376.229 129.486 385.151 138.408 385.151 149.414 L 385.151 206.557 C 385.151 217.563 376.229 226.486 365.222 226.486 L 308.08 226.486 C 297.073 226.486 288.151 217.563 288.151 206.557 L 288.151 149.414 C 288.151 138.408 297.073 129.486 308.08 129.486 Z" fill="url(#paint0_radial_2001_294)" stroke="black" stroke-width="3" transform="matrix(1, 0, 0, 1, 0, -7.105427357601002e-15)"/>
  <path d="M 308.08 129.486 L 365.222 129.486 C 376.229 129.486 385.151 138.408 385.151 149.414 L 385.151 206.557 C 385.151 217.563 376.229 226.486 365.222 226.486 L 308.08 226.486 C 297.073 226.486 288.151 217.563 288.151 206.557 L 288.151 149.414 C 288.151 138.408 297.073 129.486 308.08 129.486 Z" fill="url(#paint1_radial_2001_294)" stroke="black" stroke-width="3" transform="matrix(1, 0, 0, 1, 0, -7.105427357601002e-15)"/>
  <path d="M 308.08 129.486 L 365.222 129.486 C 376.229 129.486 385.151 138.408 385.151 149.414 L 385.151 206.557 C 385.151 217.563 376.229 226.486 365.222 226.486 L 308.08 226.486 C 297.073 226.486 288.151 217.563 288.151 206.557 L 288.151 149.414 C 288.151 138.408 297.073 129.486 308.08 129.486 Z" fill="url(#paint2_radial_2001_294)" stroke="black" stroke-width="3" transform="matrix(1, 0, 0, 1, 0, -7.105427357601002e-15)"/>
  <path d="M 360.151 158.343 C 360.151 160.473 358.424 162.2 356.294 162.2 C 354.164 162.2 352.437 160.473 352.437 158.343 C 352.437 156.212 354.164 154.486 356.294 154.486 C 358.424 154.486 360.151 156.212 360.151 158.343 Z" fill="white" stroke="black" stroke-width="3" transform="matrix(1, 0, 0, 1, 0, -7.105427357601002e-15)"/>
  <path d="M 353.008 177.986 C 353.008 187.019 345.685 194.343 336.651 194.343 C 327.617 194.343 320.294 187.019 320.294 177.986 C 320.294 168.952 327.617 161.628 336.651 161.628 C 345.685 161.628 353.008 168.952 353.008 177.986 Z M 336.651 190.2 C 343.397 190.2 348.865 184.732 348.865 177.986 C 348.865 171.24 343.397 165.771 336.651 165.771 C 329.905 165.771 324.437 171.24 324.437 177.986 C 324.437 184.732 329.905 190.2 336.651 190.2 Z" fill="white" stroke="black" stroke-width="3" transform="matrix(1, 0, 0, 1, 0, -7.105427357601002e-15)"/>
  <path d="M 356.583 219.986 C 362.434 219.982 368.043 218.865 372.18 216.879 C 376.317 214.894 378.644 212.201 378.651 209.393 C 378.651 209.02 378.342 208.662 377.792 208.398 C 377.242 208.134 376.497 207.986 375.719 207.986 C 374.941 207.986 374.196 208.134 373.646 208.398 C 373.096 208.662 372.787 209.02 372.787 209.393 C 372.782 211.455 371.074 213.432 368.036 214.89 C 364.998 216.348 360.879 217.169 356.583 217.171 C 355.805 217.171 355.06 217.319 354.51 217.583 C 353.96 217.847 353.651 218.205 353.651 218.578 C 353.651 218.952 353.96 219.309 354.51 219.573 C 355.06 219.837 355.805 219.986 356.583 219.986 Z" fill="black" transform="matrix(1, 0, 0, 1, 0, -7.105427357601002e-15)"/>
  <path d="M 353.704 166.155 C 355.806 166.587 357.916 166.541 359.57 166.028 C 361.225 165.514 362.29 164.575 362.531 163.417 C 362.563 163.263 362.483 163.092 362.307 162.943 C 362.132 162.793 361.877 162.677 361.598 162.619 C 361.319 162.562 361.038 162.568 360.818 162.636 C 360.598 162.704 360.457 162.829 360.425 162.983 C 360.248 163.833 359.466 164.523 358.251 164.9 C 357.036 165.277 355.487 165.31 353.943 164.993 C 353.664 164.936 353.384 164.942 353.164 165.01 C 352.944 165.078 352.802 165.203 352.771 165.357 C 352.739 165.511 352.819 165.682 352.994 165.831 C 353.169 165.981 353.425 166.097 353.704 166.155 Z" fill="black" transform="matrix(1, 0, 0, 1, 0, -7.105427357601002e-15)"/>
  <path d="M 375.693 206.642 C 376.144 206.642 376.598 206.493 376.976 206.187 L 377.686 205.613 C 378.562 204.903 378.697 203.618 377.988 202.742 C 377.279 201.866 375.994 201.731 375.118 202.44 L 374.408 203.015 C 373.532 203.724 373.396 205.009 374.106 205.885 C 374.509 206.383 375.098 206.642 375.693 206.642 Z" fill="black" transform="matrix(1, 0, 0, 1, 0, -7.105427357601002e-15)"/>
  <path d="M 362.503 161.986 C 362.692 161.986 362.881 161.922 363.039 161.79 L 363.335 161.543 C 363.701 161.239 363.757 160.687 363.461 160.311 C 363.165 159.934 362.629 159.876 362.263 160.181 L 361.967 160.428 C 361.601 160.732 361.545 161.284 361.841 161.661 C 362.009 161.874 362.255 161.986 362.503 161.986 Z" fill="black" transform="matrix(1, 0, 0, 1, 0, -7.105427357601002e-15)"/>
  <path d="M 358.681 150.63 C 361.651 150.902 364.066 154.529 365.579 157.528 C 366.269 158.895 366.764 160.713 367.027 163.937 C 367.295 167.228 367.3 171.459 367.3 177.552 L 367.3 180.409 C 367.3 186.502 367.295 190.733 367.027 194.024 C 366.764 197.248 366.275 199.069 365.579 200.433 C 364.066 203.403 361.651 205.818 358.681 207.331 M 360.878 151.271 C 359.514 150.576 355.496 149.446 352.272 149.182 C 348.981 148.914 344.75 148.909 338.657 148.909 L 335.8 148.909 C 329.707 148.909 325.476 148.914 322.185 149.182 L 322.307 150.672 L 322.185 149.182 C 318.962 149.446 317.14 149.935 315.776 150.63 C 312.806 152.143 310.391 154.558 308.878 157.528 C 308.183 158.892 307.694 160.714 307.43 163.937 L 308.92 164.059 L 307.43 163.937 C 307.162 167.228 307.157 171.459 307.157 177.552 L 307.157 180.409 C 307.157 186.502 307.162 190.733 307.43 194.024 C 307.694 197.248 308.183 199.069 308.878 200.433 C 310.391 203.403 312.806 205.818 315.776 207.331 C 317.14 208.027 318.961 208.516 322.185 208.779 C 325.476 209.047 329.707 209.052 335.8 209.052 L 338.657 209.052 C 344.75 209.052 348.981 209.047 352.272 208.779 C 355.496 208.516 357.5 207.935 358.864 207.239 M 305.186 155.647 C 307.097 151.898 310.146 148.849 313.896 146.938 C 315.941 145.896 318.367 145.338 321.848 145.053 C 325.346 144.767 329.775 144.766 335.8 144.766 L 338.657 144.766 C 344.682 144.766 349.111 144.767 352.609 145.053 C 356.09 145.338 358.516 145.896 360.562 146.938 C 364.311 148.849 367.36 151.898 369.271 155.647 L 369.271 155.648 C 370.313 157.693 370.872 160.119 371.156 163.6 C 371.442 167.098 371.443 171.527 371.443 177.552 L 371.443 180.409 C 371.443 186.434 371.442 190.863 371.156 194.361 C 370.872 197.842 370.313 200.268 369.271 202.313 L 369.271 202.314 C 367.36 206.063 364.311 209.112 360.562 211.023 L 360.561 211.023 C 358.516 212.065 356.09 212.623 352.609 212.908 C 349.111 213.194 344.682 213.195 338.657 213.195 L 335.8 213.195 C 329.775 213.195 325.346 213.194 321.848 212.908 C 318.367 212.623 315.941 212.065 313.896 211.023 L 313.895 211.023 C 310.146 209.112 307.097 206.063 305.186 202.314 L 305.186 202.313 C 304.144 200.268 303.586 197.842 303.301 194.361 C 303.015 190.863 303.014 186.434 303.014 180.409 L 303.014 177.552 C 303.014 171.527 303.015 167.098 303.301 163.6 C 303.586 160.119 304.144 157.693 305.186 155.647 Z M 313.215 145.603 L 313.215 145.602 L 313.215 145.603 Z" stroke="black" stroke-width="3" style="fill: rgba(255, 255, 255, 0);" transform="matrix(1, 0, 0, 1, 0, -7.105427357601002e-15)"/>
  <path d="M 306.972 156.835 C 308.776 153.273 311.655 150.376 315.195 148.561 C 317.127 147.57 319.417 147.04 322.704 146.77 C 326.007 146.498 330.189 146.497 335.877 146.497 L 338.575 146.497 C 344.263 146.497 348.444 146.498 351.748 146.77 C 355.035 147.04 357.325 147.57 359.257 148.561 C 362.796 150.376 365.675 153.273 367.48 156.835 L 367.48 156.836 C 368.463 158.779 368.991 161.085 369.26 164.393 C 369.529 167.716 369.53 171.924 369.53 177.649 L 369.53 180.364 C 369.53 186.089 369.529 190.296 369.26 193.619 C 368.991 196.928 368.463 199.233 367.48 201.175 L 367.48 201.176 C 365.675 204.738 362.796 207.636 359.257 209.452 L 359.256 209.452 C 357.325 210.442 355.035 210.972 351.748 211.243 C 348.444 211.514 344.263 211.515 338.575 211.515 L 335.877 211.515 C 330.189 211.515 326.007 211.514 322.704 211.243 C 319.417 210.972 317.127 210.442 315.195 209.452 L 315.194 209.452 C 311.655 207.636 308.776 204.738 306.972 201.176 L 306.972 201.175 C 305.988 199.233 305.461 196.928 305.192 193.619 C 304.922 190.296 304.921 186.089 304.921 180.364 L 304.921 177.649 C 304.921 171.924 304.922 167.716 305.192 164.393 C 305.461 161.085 305.988 158.779 306.972 156.835 Z M 314.553 147.292 L 314.553 147.291 L 314.553 147.292 Z" style="fill: rgba(255, 255, 255, 0); paint-order: fill; fill-rule: nonzero; stroke: rgb(255, 255, 255); stroke-width: 2px;" transform="matrix(1, 0, 0, 1, 0, -7.105427357601002e-15)"/>
</svg>