<?xml version="1.0" standalone="no"?>
<!DOCTYPE svg PUBLIC "-//W3C//DTD SVG 20010904//EN"
 "http://www.w3.org/TR/2001/REC-SVG-20010904/DTD/svg10.dtd">
<svg version="1.0" xmlns="http://www.w3.org/2000/svg"
 width="1080.000000pt" height="1080.000000pt" viewBox="0 0 1080.000000 1080.000000"
 preserveAspectRatio="xMidYMid meet">

<g transform="translate(0.000000,1050.000000) scale(0.100000,-0.100000)"
fill="#5A63CA" stroke="none">
<path d="M6546 9118 c-58 -191 -2010 -6616 -2026 -6668 -12 -39 -11 5449 1
5615 11 154 36 300 67 387 71 201 244 321 590 408 l42 11 0 149 0 150 -1290 0
c-710 0 -1290 -4 -1290 -9 0 -4 -64 -11 -142 -15 -352 -17 -682 -73 -948 -162
-635 -211 -1068 -678 -1235 -1329 -58 -229 -70 -337 -70 -640 1 -291 9 -369
62 -570 192 -738 780 -1136 1813 -1230 91 -8 202 -15 248 -15 l82 0 0 230 0
229 -37 6 c-541 87 -849 308 -1034 742 -167 389 -170 1073 -8 1494 101 262
292 483 520 604 159 83 378 148 614 180 66 9 222 19 347 22 l227 6 60 -58
c123 -117 165 -221 203 -493 8 -59 32 -2389 28 -2792 0 -30 -4 -818 -9 -1750
-7 -1476 -10 -1711 -24 -1815 -37 -268 -109 -417 -247 -505 -72 -46 -209 -103
-339 -142 l-112 -32 3 -101 3 -100 1335 0 1335 0 473 1555 c260 855 823 2710
1252 4122 429 1412 783 2574 786 2583 5 13 -63 15 -624 15 l-631 0 -25 -82z"/>
<path d="M8225 9188 c-3 -7 -86 -283 -185 -613 -100 -330 -250 -829 -335
-1110 -1451 -4816 -1965 -6526 -1965 -6534 0 -8 185 -10 626 -9 l627 3 242
805 c134 443 498 1651 809 2685 311 1034 570 1889 575 1900 13 28 14 -3932 1
-4225 -20 -435 -66 -593 -210 -723 -81 -73 -226 -136 -487 -213 -10 -2 -13
-35 -13 -119 l0 -115 1290 0 1290 0 0 115 c0 84 -3 117 -12 119 -7 3 -67 21
-133 41 -299 91 -435 203 -501 409 -62 196 -57 -33 -62 3306 -2 2215 0 3087 8
3197 36 481 154 634 585 758 l110 32 3 149 2 149 -1130 3 c-904 2 -1131 0
-1135 -10z"/>
</g>
</svg>
