<svg width="731" height="697" viewBox="0 0 731 697" fill="none" xmlns="http://www.w3.org/2000/svg">
    <path
        d="M465.83 679.909C396.367 703.288 321.278 704.029 251.367 682.025C181.456 660.021 120.328 616.407 76.7768 557.457C33.2261 498.507 9.49838 427.262 9.00776 353.972C8.51715 280.681 31.2889 209.124 74.0465 149.597C116.804 90.0697 177.343 45.6408 246.953 22.7027C316.564 -0.235254 391.656 -0.49973 461.426 21.9474C531.196 44.3945 592.046 88.3959 635.222 147.621C678.398 206.845 701.673 278.24 701.699 351.532C700.58 379.625 697.178 407.581 691.529 435.124"
        stroke="#35363E" stroke-width="18" />
    <path d="M436.991 615.541C412.074 643.849 384.759 669.953 355.349 693.56" stroke="#35363E"
        stroke-width="18" />
    <path
        d="M355.349 1.13954C448.84 82.8217 506.689 197.82 516.542 321.576C518.565 344.041 518.984 366.621 517.796 389.146"
        stroke="#35363E" stroke-width="18" />
    <path
        d="M355.349 1.13954C304.624 45.3524 263.873 99.8393 235.795 160.99C207.718 222.142 192.954 288.561 192.484 355.848C192.484 581.547 293.909 648.42 354.931 693.56"
        stroke="#35363E" stroke-width="18" />
    <path d="M54.0004 180.862H658.371" stroke="#35363E" stroke-width="18" />
    <path d="M355.349 1V693.56" stroke="#35363E" stroke-width="18" />
    <path d="M63.4736 537.242H425.566" stroke="#35363E" stroke-width="18" />
    <path d="M9 355.848L701.699 347.35" stroke="#35363E" stroke-width="18" />
    <path
        d="M655.863 697.74L717.582 635.881L606.126 524.425L669.517 483.883C670.44 483.337 671.177 482.524 671.627 481.55C672.078 480.576 672.223 479.489 672.041 478.431C671.86 477.374 671.362 476.396 670.612 475.628C669.863 474.86 668.898 474.338 667.845 474.131L454.825 424.254C453.945 424.075 453.034 424.117 452.175 424.375C451.315 424.634 450.533 425.102 449.898 425.736C449.263 426.371 448.795 427.154 448.537 428.013C448.278 428.873 448.237 429.783 448.416 430.663L494.67 647.724C494.892 648.779 495.424 649.744 496.196 650.496C496.969 651.249 497.948 651.754 499.008 651.948C500.069 652.142 501.163 652.017 502.152 651.587C503.141 651.157 503.98 650.443 504.562 649.535L544.407 586.284L655.863 697.74Z"
        stroke="#35363E" stroke-width="18" />
</svg>    